<svg width="150" height="40" viewBox="0 0 150 40" fill="none" xmlns="http://www.w3.org/2000/svg">
  <path d="M14 8L26 20L14 32" stroke="currentColor" stroke-width="4" stroke-linecap="round" stroke-linejoin="round"/>
  <path d="M6 8L18 20L6 32" stroke="currentColor" stroke-width="4" stroke-opacity="0.5" stroke-linecap="round" stroke-linejoin="round"/>
  <path d="M44 10H42V30H44H60V27H44V10Z" fill="currentColor"/>
  <path d="M63 10H81V13H73V30H70V13H63V10Z" fill="currentColor"/>
  <path d="M83 10H86V24C86 25.0609 86.4214 26.0783 87.1716 26.8284C87.9217 27.5786 88.9391 28 90 28C91.0609 28 92.0783 27.5786 92.8284 26.8284C93.5786 26.0783 94 25.0609 94 24V10H97V24C97 25.8565 96.2625 27.637 94.9497 28.9497C93.637 30.2625 91.8565 31 90 31C88.1435 31 86.363 30.2625 85.0503 28.9497C83.7375 27.637 83 25.8565 83 24V10Z" fill="currentColor"/>
  <path d="M101 10H114C115.0609 10 116.079 10.4214 116.828 11.1716C117.579 11.9217 118 12.9391 118 14V17C118 18.0609 117.579 19.0783 116.828 19.8284C116.079 20.5786 115.0609 21 114 21H104V30H101V10ZM115 17V14C115 13.7348 114.895 13.4804 114.707 13.2929C114.52 13.1054 114.265 13 114 13H104V18H114C114.265 18 114.52 17.8946 114.707 17.7071C114.895 17.5196 115 17.2652 115 17Z" fill="currentColor"/>
  <path d="M121 10H124V30H121V10Z" fill="currentColor"/>
  <path d="M127 10H138C140.2 10 142 11.8 142 14V26C142 28.2 140.2 30 138 30H127V10ZM139 14C139 13.4696 138.789 12.9609 138.414 12.5858C138.039 12.2107 137.53 12 137 12H130V28H137C137.53 28 138.039 27.7893 138.414 27.4142C138.789 27.0391 139 26.5304 139 26V14Z" fill="currentColor"/>
  <rect x="145" y="10" width="5" height="20" rx="2.5" fill="currentColor"/>
</svg> 